HIERARCHY
ROOT SpineBase
{
  OFFSET 0.000000 0.000000 0.000000
  CHANNELS 6 Xposition Yposition Zposition Zrotation Xrotation Yrotation
  JOINT SpineMid
  {
    OFFSET 0.000000 23.409996 0.000000
    CHANNELS 3 Zrotation Xrotation Yrotation
    JOINT SpineShoulder
    {
      OFFSET 0.047712 17.396156 -0.846790
      CHANNELS 3 Zrotation Xrotation Yrotation
      JOINT Neck
      {
        OFFSET 0.038263 5.775188 -0.548279
        CHANNELS 3 Zrotation Xrotation Yrotation
        JOINT Head
        {
          OFFSET -0.818150 11.539530 -2.988711
          CHANNELS 3 Zrotation Xrotation Yrotation
          End Site
          {
            OFFSET 0 0 0
          }
        }
      }
      JOINT ShoulderLeft
      {
        OFFSET -12.618378 0.150416 6.232362
        CHANNELS 3 Zrotation Xrotation Yrotation
        JOINT ElbowLeft
        {
          OFFSET -6.204456 -14.937029 9.823501
          CHANNELS 3 Zrotation Xrotation Yrotation
          JOINT WristLeft
          {
            OFFSET -19.522738 -2.454595 2.185506
            CHANNELS 3 Zrotation Xrotation Yrotation
            JOINT HandLeft
            {
              OFFSET -3.057173 -3.213563 -1.761767
              CHANNELS 3 Zrotation Xrotation Yrotation
              JOINT HandTipLeft
              {
                OFFSET -3.020340 -2.586111 -2.732335
                CHANNELS 3 Zrotation Xrotation Yrotation
                End Site
                {
                  OFFSET 0 0 0
                }
              }
              JOINT ThumbLeft
              {
                OFFSET 1.076271 -3.924588 -2.566086
                CHANNELS 3 Zrotation Xrotation Yrotation
                End Site
                {
                  OFFSET 0 0 0
                }
              }
            }
          }
        }
      }
      JOINT ShoulderRight
      {
        OFFSET 10.187916 -3.541198 -4.918602
        CHANNELS 3 Zrotation Xrotation Yrotation
        JOINT ElbowRight
        {
          OFFSET 7.330206 -24.948427 1.009787
          CHANNELS 3 Zrotation Xrotation Yrotation
          JOINT WristRight
          {
            OFFSET -9.777477 -3.717097 -18.871771
            CHANNELS 3 Zrotation Xrotation Yrotation
            JOINT HandRight
            {
              OFFSET -4.495214 -0.550815 -2.336281
              CHANNELS 3 Zrotation Xrotation Yrotation
              JOINT HandTipRight
              {
                OFFSET -3.180705 -0.929475 -2.315878
                CHANNELS 3 Zrotation Xrotation Yrotation
                End Site
                {
                  OFFSET 0 0 0
                }
              }
              JOINT ThumbRight
              {
                OFFSET -0.430544 -4.568473 1.038038
                CHANNELS 3 Zrotation Xrotation Yrotation
                End Site
                {
                  OFFSET 0 0 0
                }
              }
            }
          }
        }
      }
    }
  }
  JOINT HipLeft
  {
    OFFSET -6.545635 0.740335 -1.824667
    CHANNELS 3 Zrotation Xrotation Yrotation
    JOINT KneeLeft
    {
      OFFSET -24.043593 9.932879 -22.797797
      CHANNELS 3 Zrotation Xrotation Yrotation
      JOINT AnkleLeft
      {
        OFFSET -12.271751 -34.424786 14.953477
        CHANNELS 3 Zrotation Xrotation Yrotation
        JOINT FootLeft
        {
          OFFSET -5.546647 -2.053635 -11.834590
          CHANNELS 3 Zrotation Xrotation Yrotation
          End Site
          {
            OFFSET 0 0 0
          }
        }
      }
    }
  }
  JOINT HipRight
  {
    OFFSET 6.144256 0.676268 -3.815215
    CHANNELS 3 Zrotation Xrotation Yrotation
    JOINT KneeRight
    {
      OFFSET -23.858821 4.133444 -26.737859
      CHANNELS 3 Zrotation Xrotation Yrotation
      JOINT AnkleRight
      {
        OFFSET -1.976536 -32.234331 6.743544
        CHANNELS 3 Zrotation Xrotation Yrotation
        JOINT FootRight
        {
          OFFSET -5.138480 -2.829399 -10.477622
          CHANNELS 3 Zrotation Xrotation Yrotation
          End Site
          {
            OFFSET 0 0 0
          }
        }
      }
    }
  }
}
MOTION
Frames: 9
Frame Time: 0.033333
31.581515 33.792445 389.569764 -0.000000 0.000000 8.914827 -0.000000 0.000000 -8.914827 -0.000000 0.000000 0.000000 -0.000000 0.000000 0.000000 0.000000 0.000000 0.000000 -0.000000 0.000000 0.000000 -0.000000 0.000000 0.000000 -0.000000 0.000000 0.000000 -0.000000 0.000000 0.000000 0.000000 0.000000 0.000000 0.000000 0.000000 0.000000 -0.000000 0.000000 0.000000 -0.000000 0.000000 0.000000 -0.000000 0.000000 0.000000 -0.000000 0.000000 0.000000 0.000000 0.000000 0.000000 0.000000 0.000000 0.000000 -0.000000 0.000000 -8.914827 -0.000000 0.000000 0.000000 -0.000000 0.000000 0.000000 0.000000 0.000000 0.000000 -0.000000 0.000000 -8.914827 -0.000000 0.000000 0.000000 -0.000000 0.000000 0.000000 0.000000 0.000000 0.000000
31.019368 33.819840 390.121515 -0.965670 -0.937827 8.319719 1.091307 0.788086 -8.335128 -0.000000 0.000000 0.000000 -0.000000 0.000000 0.000000 0.000000 0.000000 0.000000 -0.210570 2.114184 -1.024499 4.314092 -1.628925 1.755606 -9.724805 2.013348 0.335325 5.724176 -1.739734 -1.580209 0.000000 0.000000 0.000000 0.000000 0.000000 0.000000 1.138386 -1.581758 -0.401582 -1.149877 1.573426 0.433087 0.412038 -0.107526 -0.899723 -4.993750 4.167568 -1.335531 0.000000 0.000000 0.000000 0.000000 0.000000 0.000000 1.128426 0.299398 -9.235314 -0.115068 0.476397 0.900313 2.336859 -4.997411 0.201056 0.000000 0.000000 0.000000 0.696002 1.090453 -9.797735 0.440957 -0.230668 1.469975 -0.000000 0.000000 0.000000 0.000000 0.000000 0.000000
30.589596 33.838041 390.551157 -1.692343 -1.632562 7.737626 0.692896 0.789569 -7.813882 0.540881 0.150829 -0.000952 -0.510727 0.520767 -0.228443 0.000000 0.000000 0.000000 0.261285 4.217005 -1.674909 7.482811 -2.612779 2.884874 -17.848283 3.701395 1.218438 11.074823 -3.463019 -2.883673 0.000000 0.000000 0.000000 0.000000 0.000000 0.000000 2.579116 -2.210846 -0.667683 -1.708727 2.075352 1.039374 0.570582 0.415910 -1.686448 -8.641962 7.116936 -1.975692 0.000000 0.000000 0.000000 0.000000 0.000000 0.000000 1.955668 0.539504 -9.374800 -0.196006 0.828729 1.590493 4.607139 -9.752364 0.582905 0.000000 0.000000 0.000000 1.169222 1.966984 -10.370942 1.320360 -1.164251 2.761041 -0.464808 0.750199 -0.140356 0.000000 0.000000 0.000000
30.292198 33.847047 390.858690 -2.177416 -2.081871 7.169498 0.812511 0.970436 -7.277977 0.755258 0.241966 -0.000096 -0.809809 0.591747 -0.335396 0.000000 0.000000 0.000000 0.423845 5.222958 -2.024220 9.603316 -3.040552 3.238094 -23.773589 4.621792 2.393107 15.306574 -4.818020 -3.945134 0.000000 0.000000 0.000000 0.000000 0.000000 0.000000 3.347328 -2.925279 -0.867289 -2.189595 2.665106 1.335039 0.983520 0.413004 -1.864428 -11.025466 8.911444 -2.173013 0.000000 0.000000 0.000000 0.000000 0.000000 0.000000 2.485595 0.709283 -9.316348 0.510969 1.298438 2.308779 5.760834 -13.981664 0.817328 0.000000 0.000000 0.000000 1.419277 2.617156 -10.631514 1.844315 -1.566757 3.638761 -0.646614 0.984100 -0.190342 0.000000 0.000000 0.000000
30.127176 33.846859 391.044113 -2.419238 -2.284585 6.614313 0.784713 1.001133 -6.741827 0.932156 0.343534 0.002455 -1.140669 0.536284 -0.441095 0.000000 0.000000 0.000000 0.588917 5.461602 -2.036883 10.760602 -2.972258 2.737178 -26.941972 4.514042 3.589594 17.771748 -5.497876 -4.864163 0.000000 0.000000 0.000000 0.000000 0.000000 0.000000 3.770212 -3.371978 -0.984867 -2.410029 2.944238 1.472790 1.479522 0.288815 -1.596416 -12.250464 9.677618 -2.107574 0.000000 0.000000 0.000000 0.000000 0.000000 0.000000 2.721920 0.799186 -9.047273 0.560019 1.494281 2.569692 7.102253 -16.817249 1.242676 0.000000 0.000000 0.000000 1.447051 3.031163 -10.578380 2.269389 -1.869689 4.189856 -0.798224 1.130608 -0.228821 0.000000 0.000000 0.000000
30.094529 33.837476 391.107426 -2.416860 -2.240086 6.069562 0.613212 0.876980 -6.200691 1.071519 0.455524 0.007058 -1.504992 0.354098 -0.547942 0.000000 0.000000 0.000000 0.753065 4.935904 -1.713437 11.020995 -2.432820 1.358685 -26.986894 3.328537 4.677070 18.063932 -5.305452 -5.710031 0.000000 0.000000 0.000000 0.000000 0.000000 0.000000 3.847184 -3.546472 -1.023375 -2.363311 2.904701 1.448413 2.060279 0.057857 -0.878244 -12.415623 9.529116 -1.883776 0.000000 0.000000 0.000000 0.000000 0.000000 0.000000 2.667720 0.800307 -8.559659 0.555758 1.568195 2.580233 7.772418 -18.075264 1.493167 0.000000 0.000000 0.000000 1.254781 3.200838 -10.212400 2.593224 -2.083673 4.419336 -0.921600 1.193161 -0.256807 0.000000 0.000000 0.000000
30.246485 33.800796 391.040914 -2.011737 -1.841914 5.216819 0.117370 0.451257 -5.333142 1.256206 0.619672 0.019558 -1.960887 0.101418 -0.655873 0.000000 0.000000 0.000000 1.703696 2.233641 0.094348 6.790657 -0.408414 -3.209610 -20.183547 0.613356 6.755150 16.101798 -5.489220 -5.428864 0.000000 0.000000 0.000000 0.000000 0.000000 0.000000 2.888542 -2.620415 -0.809675 -1.350561 1.694325 0.831795 2.615766 -0.256890 1.431978 -9.141433 5.962574 0.050960 0.000000 0.000000 0.000000 0.000000 0.000000 0.000000 2.140816 0.681240 -7.443420 -0.094865 0.964788 2.164407 8.559358 -17.603947 1.753353 0.000000 0.000000 0.000000 0.673088 3.018403 -9.200627 2.842536 -2.311533 4.330959 -1.050853 1.284053 -0.287322 0.000000 0.000000 0.000000
30.544716 33.757636 390.846413 -1.373157 -1.192631 4.627935 -0.456387 -0.122154 -4.724729 1.816322 1.353861 0.063284 -2.971063 -0.939961 -0.860430 0.000000 0.000000 0.000000 0.723865 0.746958 0.162195 5.655713 0.184775 -3.500185 -10.619615 -2.574933 6.399671 10.393827 -3.218380 -5.700492 0.000000 0.000000 0.000000 0.000000 0.000000 0.000000 1.575922 -2.648909 -0.674832 -0.550897 0.771981 0.350463 3.837939 -0.860497 3.658956 -9.641632 6.466525 -1.289604 0.000000 0.000000 0.000000 0.000000 0.000000 0.000000 1.321354 0.435630 -6.420772 0.071094 0.654020 1.766259 7.605078 -15.771019 1.391591 0.000000 0.000000 0.000000 -0.081125 2.565129 -8.065285 2.962603 -2.286352 3.824624 -1.151262 1.110141 -0.298196 0.000000 0.000000 0.000000
31.004391 33.725413 390.496744 -0.559676 -0.419613 4.480821 -1.016534 -0.666549 -4.559709 1.519713 1.165358 0.055356 -3.095248 -1.128854 -0.911796 0.000000 0.000000 0.000000 0.560761 -0.586448 0.614436 5.980269 1.591365 -5.820522 -4.793509 -5.681973 8.478460 6.848863 -0.607630 -7.600274 0.000000 0.000000 0.000000 0.000000 0.000000 0.000000 1.040122 -2.000493 -0.525795 0.077581 0.039223 -0.036266 4.852670 -1.308354 4.538533 -7.205602 3.894010 -0.411870 0.000000 0.000000 0.000000 0.000000 0.000000 0.000000 0.385230 0.103322 -5.596956 0.178091 0.290016 1.112561 5.902852 -12.392208 0.832496 0.000000 0.000000 0.000000 -0.885851 1.917701 -6.937315 2.986797 -2.208382 2.869579 -1.289527 0.920689 -0.316192 0.000000 0.000000 0.000000
